<mxfile host="app.diagrams.net" modified="2022-11-02T08:31:13.711Z" agent="5.0 (Windows)" etag="gBRddlVb5hawx0WZag4m" version="20.5.1" type="github">
  <diagram id="C5RBs43oDa-KdzZeNtuy" name="Page-1">
    <mxGraphModel dx="1580" dy="1996" grid="1" gridSize="10" guides="1" tooltips="1" connect="1" arrows="1" fold="1" page="1" pageScale="1" pageWidth="827" pageHeight="1169" math="0" shadow="0">
      <root>
        <mxCell id="WIyWlLk6GJQsqaUBKTNV-0" />
        <mxCell id="WIyWlLk6GJQsqaUBKTNV-1" parent="WIyWlLk6GJQsqaUBKTNV-0" />
        <mxCell id="7VaO58yIEFrL6GdO1eUj-7" value="Hauptmenu" style="strokeWidth=1;shadow=0;dashed=0;align=center;html=1;shape=mxgraph.mockup.containers.window;align=left;verticalAlign=top;spacingLeft=8;strokeColor2=#008cff;strokeColor3=#c4c4c4;fontColor=#666666;mainText=;fontSize=17;labelBackgroundColor=none;" parent="WIyWlLk6GJQsqaUBKTNV-1" vertex="1">
          <mxGeometry x="690" y="-1150" width="550" height="380" as="geometry" />
        </mxCell>
        <mxCell id="7VaO58yIEFrL6GdO1eUj-10" value="ausloggen" style="strokeWidth=1;shadow=0;dashed=0;align=center;html=1;shape=mxgraph.mockup.buttons.button;strokeColor=#666666;fontColor=#ffffff;mainText=;buttonStyle=round;fontSize=17;fontStyle=1;fillColor=#008cff;whiteSpace=wrap;" parent="WIyWlLk6GJQsqaUBKTNV-1" vertex="1">
          <mxGeometry x="1110" y="-830" width="110" height="40" as="geometry" />
        </mxCell>
        <mxCell id="7VaO58yIEFrL6GdO1eUj-12" value="Login" style="strokeWidth=1;shadow=0;dashed=0;align=center;html=1;shape=mxgraph.mockup.containers.window;align=left;verticalAlign=top;spacingLeft=8;strokeColor2=#008cff;strokeColor3=#c4c4c4;fontColor=#666666;mainText=;fontSize=17;labelBackgroundColor=none;" parent="WIyWlLk6GJQsqaUBKTNV-1" vertex="1">
          <mxGeometry x="100" y="-750" width="550" height="380" as="geometry" />
        </mxCell>
        <mxCell id="7VaO58yIEFrL6GdO1eUj-13" value="********" style="strokeWidth=1;shadow=0;dashed=0;align=center;html=1;shape=mxgraph.mockup.forms.pwField;strokeColor=#999999;mainText=;align=left;fontColor=#666666;fontSize=17;spacingLeft=3;" parent="WIyWlLk6GJQsqaUBKTNV-1" vertex="1">
          <mxGeometry x="300" y="-520" width="150" height="30" as="geometry" />
        </mxCell>
        <mxCell id="7VaO58yIEFrL6GdO1eUj-14" value="Anmelden" style="strokeWidth=1;shadow=0;dashed=0;align=center;html=1;shape=mxgraph.mockup.buttons.button;strokeColor=#666666;fontColor=#ffffff;mainText=;buttonStyle=round;fontSize=17;fontStyle=1;fillColor=#008cff;whiteSpace=wrap;" parent="WIyWlLk6GJQsqaUBKTNV-1" vertex="1">
          <mxGeometry x="480" y="-430" width="150" height="40" as="geometry" />
        </mxCell>
        <mxCell id="7VaO58yIEFrL6GdO1eUj-15" value="elSombrero6345" style="strokeWidth=1;shadow=0;dashed=0;align=center;html=1;shape=mxgraph.mockup.forms.pwField;strokeColor=#999999;mainText=;align=left;fontColor=#666666;fontSize=17;spacingLeft=3;" parent="WIyWlLk6GJQsqaUBKTNV-1" vertex="1">
          <mxGeometry x="300" y="-614" width="150" height="30" as="geometry" />
        </mxCell>
        <mxCell id="7VaO58yIEFrL6GdO1eUj-17" value="Username" style="text;html=1;strokeColor=none;fillColor=none;align=center;verticalAlign=middle;whiteSpace=wrap;rounded=0;labelBorderColor=none;fontSize=17;" parent="WIyWlLk6GJQsqaUBKTNV-1" vertex="1">
          <mxGeometry x="345" y="-644" width="60" height="30" as="geometry" />
        </mxCell>
        <mxCell id="7VaO58yIEFrL6GdO1eUj-18" value="Passwort" style="text;html=1;strokeColor=none;fillColor=none;align=center;verticalAlign=middle;whiteSpace=wrap;rounded=0;labelBorderColor=none;fontSize=17;" parent="WIyWlLk6GJQsqaUBKTNV-1" vertex="1">
          <mxGeometry x="345" y="-550" width="60" height="30" as="geometry" />
        </mxCell>
        <mxCell id="7VaO58yIEFrL6GdO1eUj-35" value="" style="verticalLabelPosition=bottom;shadow=0;dashed=0;align=center;html=1;verticalAlign=top;strokeWidth=1;shape=mxgraph.mockup.menus_and_buttons.font_style_selector_1;labelBackgroundColor=#0000FF;labelBorderColor=none;fontSize=17;fontColor=default;fillColor=default;" parent="WIyWlLk6GJQsqaUBKTNV-1" vertex="1">
          <mxGeometry x="440" y="-770" width="136" height="31" as="geometry" />
        </mxCell>
        <mxCell id="E5yHEnVOpl1G4EYSQThK-1" value="Registration" style="strokeWidth=1;shadow=0;dashed=0;align=center;html=1;shape=mxgraph.mockup.containers.window;align=left;verticalAlign=top;spacingLeft=8;strokeColor2=#008cff;strokeColor3=#c4c4c4;fontColor=#666666;mainText=;fontSize=17;labelBackgroundColor=none;" parent="WIyWlLk6GJQsqaUBKTNV-1" vertex="1">
          <mxGeometry x="100" y="-352.5" width="550" height="380" as="geometry" />
        </mxCell>
        <mxCell id="E5yHEnVOpl1G4EYSQThK-2" value="elSombrero6345" style="strokeWidth=1;shadow=0;dashed=0;align=center;html=1;shape=mxgraph.mockup.forms.pwField;strokeColor=#999999;mainText=;align=left;fontColor=#666666;fontSize=17;spacingLeft=3;" parent="WIyWlLk6GJQsqaUBKTNV-1" vertex="1">
          <mxGeometry x="400" y="-177.5" width="150" height="30" as="geometry" />
        </mxCell>
        <mxCell id="E5yHEnVOpl1G4EYSQThK-3" value="Username" style="text;html=1;strokeColor=none;fillColor=none;align=center;verticalAlign=middle;whiteSpace=wrap;rounded=0;labelBorderColor=none;fontSize=17;" parent="WIyWlLk6GJQsqaUBKTNV-1" vertex="1">
          <mxGeometry x="440" y="-212.5" width="60" height="30" as="geometry" />
        </mxCell>
        <mxCell id="E5yHEnVOpl1G4EYSQThK-4" value="Passwort" style="text;html=1;strokeColor=none;fillColor=none;align=center;verticalAlign=middle;whiteSpace=wrap;rounded=0;labelBorderColor=none;fontSize=17;" parent="WIyWlLk6GJQsqaUBKTNV-1" vertex="1">
          <mxGeometry x="180" y="-117.5" width="60" height="30" as="geometry" />
        </mxCell>
        <mxCell id="E5yHEnVOpl1G4EYSQThK-5" value="********" style="strokeWidth=1;shadow=0;dashed=0;align=center;html=1;shape=mxgraph.mockup.forms.pwField;strokeColor=#999999;mainText=;align=left;fontColor=#666666;fontSize=17;spacingLeft=3;" parent="WIyWlLk6GJQsqaUBKTNV-1" vertex="1">
          <mxGeometry x="400" y="-87.5" width="150" height="30" as="geometry" />
        </mxCell>
        <mxCell id="E5yHEnVOpl1G4EYSQThK-6" value="Passwort wiederholen" style="text;html=1;strokeColor=none;fillColor=none;align=center;verticalAlign=middle;whiteSpace=wrap;rounded=0;labelBorderColor=none;fontSize=17;" parent="WIyWlLk6GJQsqaUBKTNV-1" vertex="1">
          <mxGeometry x="390" y="-117.5" width="170" height="30" as="geometry" />
        </mxCell>
        <mxCell id="E5yHEnVOpl1G4EYSQThK-7" value="********" style="strokeWidth=1;shadow=0;dashed=0;align=center;html=1;shape=mxgraph.mockup.forms.pwField;strokeColor=#999999;mainText=;align=left;fontColor=#666666;fontSize=17;spacingLeft=3;" parent="WIyWlLk6GJQsqaUBKTNV-1" vertex="1">
          <mxGeometry x="140" y="-87.5" width="150" height="30" as="geometry" />
        </mxCell>
        <mxCell id="E5yHEnVOpl1G4EYSQThK-8" value="elSom@gmail.com" style="strokeWidth=1;shadow=0;dashed=0;align=center;html=1;shape=mxgraph.mockup.forms.pwField;strokeColor=#999999;mainText=;align=left;fontColor=#666666;fontSize=17;spacingLeft=3;" parent="WIyWlLk6GJQsqaUBKTNV-1" vertex="1">
          <mxGeometry x="140" y="-177.5" width="150" height="30" as="geometry" />
        </mxCell>
        <mxCell id="E5yHEnVOpl1G4EYSQThK-9" value="E-Mail" style="text;html=1;strokeColor=none;fillColor=none;align=center;verticalAlign=middle;whiteSpace=wrap;rounded=0;labelBorderColor=none;fontSize=17;" parent="WIyWlLk6GJQsqaUBKTNV-1" vertex="1">
          <mxGeometry x="180" y="-207.5" width="60" height="30" as="geometry" />
        </mxCell>
        <mxCell id="E5yHEnVOpl1G4EYSQThK-10" value="Sombrero" style="strokeWidth=1;shadow=0;dashed=0;align=center;html=1;shape=mxgraph.mockup.forms.pwField;strokeColor=#999999;mainText=;align=left;fontColor=#666666;fontSize=17;spacingLeft=3;" parent="WIyWlLk6GJQsqaUBKTNV-1" vertex="1">
          <mxGeometry x="400" y="-261.5" width="150" height="30" as="geometry" />
        </mxCell>
        <mxCell id="E5yHEnVOpl1G4EYSQThK-11" value="Elias" style="strokeWidth=1;shadow=0;dashed=0;align=center;html=1;shape=mxgraph.mockup.forms.pwField;strokeColor=#999999;mainText=;align=left;fontColor=#666666;fontSize=17;spacingLeft=3;" parent="WIyWlLk6GJQsqaUBKTNV-1" vertex="1">
          <mxGeometry x="140" y="-262.5" width="150" height="30" as="geometry" />
        </mxCell>
        <mxCell id="E5yHEnVOpl1G4EYSQThK-12" value="Vorname" style="text;html=1;strokeColor=none;fillColor=none;align=center;verticalAlign=middle;whiteSpace=wrap;rounded=0;labelBorderColor=none;fontSize=17;" parent="WIyWlLk6GJQsqaUBKTNV-1" vertex="1">
          <mxGeometry x="180" y="-292.5" width="60" height="30" as="geometry" />
        </mxCell>
        <mxCell id="E5yHEnVOpl1G4EYSQThK-13" value="Nachname" style="text;html=1;strokeColor=none;fillColor=none;align=center;verticalAlign=middle;whiteSpace=wrap;rounded=0;labelBorderColor=none;fontSize=17;" parent="WIyWlLk6GJQsqaUBKTNV-1" vertex="1">
          <mxGeometry x="440" y="-292.5" width="60" height="30" as="geometry" />
        </mxCell>
        <mxCell id="E5yHEnVOpl1G4EYSQThK-14" value="Registrieren" style="strokeWidth=1;shadow=0;dashed=0;align=center;html=1;shape=mxgraph.mockup.buttons.button;strokeColor=#666666;fontColor=#ffffff;mainText=;buttonStyle=round;fontSize=17;fontStyle=1;fillColor=#008cff;whiteSpace=wrap;" parent="WIyWlLk6GJQsqaUBKTNV-1" vertex="1">
          <mxGeometry x="486" y="-30" width="150" height="40" as="geometry" />
        </mxCell>
        <mxCell id="E5yHEnVOpl1G4EYSQThK-16" value="" style="verticalLabelPosition=bottom;shadow=0;dashed=0;align=center;html=1;verticalAlign=top;strokeWidth=1;shape=mxgraph.mockup.containers.userMale;strokeColor=#666666;strokeColor2=#008cff;" parent="WIyWlLk6GJQsqaUBKTNV-1" vertex="1">
          <mxGeometry x="1181" y="-1115" width="40" height="40" as="geometry" />
        </mxCell>
        <mxCell id="E5yHEnVOpl1G4EYSQThK-17" value="" style="verticalLabelPosition=bottom;shadow=0;dashed=0;align=center;html=1;verticalAlign=top;strokeWidth=1;shape=mxgraph.mockup.misc.help_icon;" parent="WIyWlLk6GJQsqaUBKTNV-1" vertex="1">
          <mxGeometry x="1100" y="-1115" width="42" height="40" as="geometry" />
        </mxCell>
        <mxCell id="E5yHEnVOpl1G4EYSQThK-18" value="&lt;span style=&quot;color: rgb(102, 102, 102); font-size: 9px; text-align: left;&quot;&gt;eingeloggt als:&lt;br&gt;elSombrero6345&lt;/span&gt;" style="text;html=1;strokeColor=none;fillColor=none;align=center;verticalAlign=middle;whiteSpace=wrap;rounded=0;labelBorderColor=none;fontSize=9;fontFamily=Verdana;" parent="WIyWlLk6GJQsqaUBKTNV-1" vertex="1">
          <mxGeometry x="1166" y="-1075" width="70" height="30" as="geometry" />
        </mxCell>
        <mxCell id="E5yHEnVOpl1G4EYSQThK-19" value="Trainingseinheit nutzen" style="strokeWidth=1;shadow=0;dashed=0;align=center;html=1;shape=mxgraph.mockup.buttons.button;strokeColor=#666666;fontColor=#ffffff;mainText=;buttonStyle=round;fontSize=17;fontStyle=1;fillColor=#008cff;whiteSpace=wrap;" parent="WIyWlLk6GJQsqaUBKTNV-1" vertex="1">
          <mxGeometry x="700" y="-1110" width="240" height="40" as="geometry" />
        </mxCell>
        <mxCell id="E5yHEnVOpl1G4EYSQThK-20" value="Trainingseinheit erstellen" style="strokeWidth=1;shadow=0;dashed=0;align=center;html=1;shape=mxgraph.mockup.buttons.button;strokeColor=#666666;fontColor=#ffffff;mainText=;buttonStyle=round;fontSize=17;fontStyle=1;fillColor=#008cff;whiteSpace=wrap;" parent="WIyWlLk6GJQsqaUBKTNV-1" vertex="1">
          <mxGeometry x="700" y="-1060" width="240" height="40" as="geometry" />
        </mxCell>
        <mxCell id="E5yHEnVOpl1G4EYSQThK-21" value="Hauptmenu" style="strokeWidth=1;shadow=0;dashed=0;align=center;html=1;shape=mxgraph.mockup.containers.window;align=left;verticalAlign=top;spacingLeft=8;strokeColor2=#008cff;strokeColor3=#c4c4c4;fontColor=#666666;mainText=;fontSize=17;labelBackgroundColor=none;" parent="WIyWlLk6GJQsqaUBKTNV-1" vertex="1">
          <mxGeometry x="100" y="-1150" width="550" height="380" as="geometry" />
        </mxCell>
        <mxCell id="E5yHEnVOpl1G4EYSQThK-22" value="Login" style="strokeWidth=1;shadow=0;dashed=0;align=center;html=1;shape=mxgraph.mockup.buttons.button;strokeColor=#666666;fontColor=#ffffff;mainText=;buttonStyle=round;fontSize=17;fontStyle=1;fillColor=#008cff;whiteSpace=wrap;" parent="WIyWlLk6GJQsqaUBKTNV-1" vertex="1">
          <mxGeometry x="520" y="-830" width="110" height="40" as="geometry" />
        </mxCell>
        <mxCell id="E5yHEnVOpl1G4EYSQThK-23" value="Registration" style="strokeWidth=1;shadow=0;dashed=0;align=center;html=1;shape=mxgraph.mockup.buttons.button;strokeColor=#666666;fontColor=#ffffff;mainText=;buttonStyle=round;fontSize=17;fontStyle=1;fillColor=#008cff;whiteSpace=wrap;" parent="WIyWlLk6GJQsqaUBKTNV-1" vertex="1">
          <mxGeometry x="520" y="-885" width="110" height="40" as="geometry" />
        </mxCell>
        <mxCell id="E5yHEnVOpl1G4EYSQThK-24" value="" style="verticalLabelPosition=bottom;shadow=0;dashed=0;align=center;html=1;verticalAlign=top;strokeWidth=1;shape=mxgraph.mockup.containers.userMale;strokeColor=#666666;strokeColor2=#008cff;" parent="WIyWlLk6GJQsqaUBKTNV-1" vertex="1">
          <mxGeometry x="591" y="-1115" width="40" height="40" as="geometry" />
        </mxCell>
        <mxCell id="E5yHEnVOpl1G4EYSQThK-25" value="" style="verticalLabelPosition=bottom;shadow=0;dashed=0;align=center;html=1;verticalAlign=top;strokeWidth=1;shape=mxgraph.mockup.misc.help_icon;" parent="WIyWlLk6GJQsqaUBKTNV-1" vertex="1">
          <mxGeometry x="510" y="-1115" width="42" height="40" as="geometry" />
        </mxCell>
        <mxCell id="E5yHEnVOpl1G4EYSQThK-26" value="&lt;div style=&quot;text-align: left;&quot;&gt;&lt;span style=&quot;background-color: initial;&quot;&gt;&lt;font color=&quot;#666666&quot;&gt;gast&lt;/font&gt;&lt;/span&gt;&lt;/div&gt;" style="text;html=1;strokeColor=none;fillColor=none;align=center;verticalAlign=middle;whiteSpace=wrap;rounded=0;labelBorderColor=none;fontSize=9;fontFamily=Verdana;" parent="WIyWlLk6GJQsqaUBKTNV-1" vertex="1">
          <mxGeometry x="576" y="-1080" width="70" height="30" as="geometry" />
        </mxCell>
        <mxCell id="E5yHEnVOpl1G4EYSQThK-27" value="Trainingseinheit nutzen" style="strokeWidth=1;shadow=0;dashed=0;align=center;html=1;shape=mxgraph.mockup.buttons.button;strokeColor=#666666;fontColor=#ffffff;mainText=;buttonStyle=round;fontSize=17;fontStyle=1;fillColor=#008cff;whiteSpace=wrap;" parent="WIyWlLk6GJQsqaUBKTNV-1" vertex="1">
          <mxGeometry x="110" y="-1110" width="240" height="40" as="geometry" />
        </mxCell>
        <mxCell id="E5yHEnVOpl1G4EYSQThK-30" value="Trainingseinheit bewerten" style="strokeWidth=1;shadow=0;dashed=0;align=center;html=1;shape=mxgraph.mockup.buttons.button;strokeColor=#666666;fontColor=#ffffff;mainText=;buttonStyle=round;fontSize=17;fontStyle=1;fillColor=#008cff;whiteSpace=wrap;" parent="WIyWlLk6GJQsqaUBKTNV-1" vertex="1">
          <mxGeometry x="110" y="-1060" width="240" height="40" as="geometry" />
        </mxCell>
        <mxCell id="E5yHEnVOpl1G4EYSQThK-31" value="Trainingseinheit löschen" style="strokeWidth=1;shadow=0;dashed=0;align=center;html=1;shape=mxgraph.mockup.buttons.button;strokeColor=#666666;fontColor=#ffffff;mainText=;buttonStyle=round;fontSize=17;fontStyle=1;fillColor=#008cff;whiteSpace=wrap;" parent="WIyWlLk6GJQsqaUBKTNV-1" vertex="1">
          <mxGeometry x="700" y="-1010" width="240" height="40" as="geometry" />
        </mxCell>
        <mxCell id="E5yHEnVOpl1G4EYSQThK-32" value="Help" style="text;html=1;strokeColor=none;fillColor=none;align=center;verticalAlign=middle;whiteSpace=wrap;rounded=0;labelBorderColor=none;fontSize=9;fontFamily=Verdana;" parent="WIyWlLk6GJQsqaUBKTNV-1" vertex="1">
          <mxGeometry x="496" y="-1080" width="70" height="30" as="geometry" />
        </mxCell>
        <mxCell id="E5yHEnVOpl1G4EYSQThK-33" value="Help" style="text;html=1;strokeColor=none;fillColor=none;align=center;verticalAlign=middle;whiteSpace=wrap;rounded=0;labelBorderColor=none;fontSize=9;fontFamily=Verdana;" parent="WIyWlLk6GJQsqaUBKTNV-1" vertex="1">
          <mxGeometry x="1086" y="-1080" width="70" height="30" as="geometry" />
        </mxCell>
        <mxCell id="E5yHEnVOpl1G4EYSQThK-36" value="Help" style="strokeWidth=1;shadow=0;dashed=0;align=center;html=1;shape=mxgraph.mockup.containers.window;align=left;verticalAlign=top;spacingLeft=8;strokeColor2=#008cff;strokeColor3=#c4c4c4;fontColor=#666666;mainText=;fontSize=17;labelBackgroundColor=none;" parent="WIyWlLk6GJQsqaUBKTNV-1" vertex="1">
          <mxGeometry x="680" y="-750" width="550" height="380" as="geometry" />
        </mxCell>
        <mxCell id="E5yHEnVOpl1G4EYSQThK-37" value="Zurück" style="strokeWidth=1;shadow=0;dashed=0;align=center;html=1;shape=mxgraph.mockup.buttons.button;strokeColor=#666666;fontColor=#ffffff;mainText=;buttonStyle=round;fontSize=17;fontStyle=1;fillColor=#008cff;whiteSpace=wrap;" parent="WIyWlLk6GJQsqaUBKTNV-1" vertex="1">
          <mxGeometry x="1100" y="-430" width="110" height="40" as="geometry" />
        </mxCell>
        <mxCell id="E5yHEnVOpl1G4EYSQThK-38" value="" style="verticalLabelPosition=bottom;shadow=0;dashed=0;align=center;html=1;verticalAlign=top;strokeWidth=1;shape=mxgraph.mockup.containers.userMale;strokeColor=#666666;strokeColor2=#008cff;" parent="WIyWlLk6GJQsqaUBKTNV-1" vertex="1">
          <mxGeometry x="1171" y="-715" width="40" height="40" as="geometry" />
        </mxCell>
        <mxCell id="E5yHEnVOpl1G4EYSQThK-40" value="&lt;span style=&quot;color: rgb(102, 102, 102); font-size: 9px; text-align: left;&quot;&gt;eingeloggt als:&lt;br&gt;elSombrero6345&lt;/span&gt;" style="text;html=1;strokeColor=none;fillColor=none;align=center;verticalAlign=middle;whiteSpace=wrap;rounded=0;labelBorderColor=none;fontSize=9;fontFamily=Verdana;" parent="WIyWlLk6GJQsqaUBKTNV-1" vertex="1">
          <mxGeometry x="1156" y="-675" width="70" height="30" as="geometry" />
        </mxCell>
        <mxCell id="E5yHEnVOpl1G4EYSQThK-46" value="Senden" style="strokeWidth=1;shadow=0;dashed=0;align=center;html=1;shape=mxgraph.mockup.buttons.button;strokeColor=#b85450;mainText=;buttonStyle=round;fontSize=17;fontStyle=1;fillColor=#f8cecc;whiteSpace=wrap;" parent="WIyWlLk6GJQsqaUBKTNV-1" vertex="1">
          <mxGeometry x="690" y="-430" width="105" height="40" as="geometry" />
        </mxCell>
        <mxCell id="E5yHEnVOpl1G4EYSQThK-47" value="Tel: 041 251 11 55" style="text;html=1;strokeColor=none;fillColor=none;align=left;verticalAlign=middle;whiteSpace=wrap;rounded=0;labelBorderColor=none;fontSize=13;" parent="WIyWlLk6GJQsqaUBKTNV-1" vertex="1">
          <mxGeometry x="880" y="-630" width="271" height="30" as="geometry" />
        </mxCell>
        <mxCell id="E5yHEnVOpl1G4EYSQThK-48" value="Internet: www.elFitness.ch" style="text;html=1;strokeColor=none;fillColor=none;align=left;verticalAlign=middle;whiteSpace=wrap;rounded=0;labelBorderColor=none;fontSize=13;" parent="WIyWlLk6GJQsqaUBKTNV-1" vertex="1">
          <mxGeometry x="1040" y="-630" width="154" height="30" as="geometry" />
        </mxCell>
        <mxCell id="E5yHEnVOpl1G4EYSQThK-54" value="Email: elFitness@gmx.ch" style="text;html=1;strokeColor=none;fillColor=none;align=left;verticalAlign=middle;whiteSpace=wrap;rounded=0;labelBorderColor=none;fontSize=13;" parent="WIyWlLk6GJQsqaUBKTNV-1" vertex="1">
          <mxGeometry x="880" y="-614" width="310" height="30" as="geometry" />
        </mxCell>
        <mxCell id="E5yHEnVOpl1G4EYSQThK-55" value="Instagramm: ElFitnessOfficial" style="text;html=1;strokeColor=none;fillColor=none;align=left;verticalAlign=middle;whiteSpace=wrap;rounded=0;labelBorderColor=none;fontSize=13;" parent="WIyWlLk6GJQsqaUBKTNV-1" vertex="1">
          <mxGeometry x="1040" y="-614" width="310" height="30" as="geometry" />
        </mxCell>
        <mxCell id="E5yHEnVOpl1G4EYSQThK-59" value="Sombrerostrasse 69" style="text;html=1;strokeColor=none;fillColor=none;align=left;verticalAlign=middle;whiteSpace=wrap;rounded=0;labelBorderColor=none;fontSize=13;" parent="WIyWlLk6GJQsqaUBKTNV-1" vertex="1">
          <mxGeometry x="690" y="-630" width="190" height="30" as="geometry" />
        </mxCell>
        <mxCell id="E5yHEnVOpl1G4EYSQThK-60" value="&lt;b style=&quot;font-size: 15px;&quot;&gt;ElFitnessEntwicklerFirma&lt;/b&gt;" style="text;html=1;strokeColor=none;fillColor=none;align=left;verticalAlign=middle;whiteSpace=wrap;rounded=0;labelBorderColor=none;fontSize=15;" parent="WIyWlLk6GJQsqaUBKTNV-1" vertex="1">
          <mxGeometry x="690" y="-650" width="200" height="30" as="geometry" />
        </mxCell>
        <mxCell id="E5yHEnVOpl1G4EYSQThK-61" value="6000 Luzern" style="text;html=1;strokeColor=none;fillColor=none;align=left;verticalAlign=middle;whiteSpace=wrap;rounded=0;labelBorderColor=none;fontSize=13;" parent="WIyWlLk6GJQsqaUBKTNV-1" vertex="1">
          <mxGeometry x="690" y="-614" width="190" height="30" as="geometry" />
        </mxCell>
        <mxCell id="E5yHEnVOpl1G4EYSQThK-64" value="&lt;b style=&quot;font-size: 20px;&quot;&gt;Über uns&lt;/b&gt;" style="text;html=1;strokeColor=none;fillColor=none;align=left;verticalAlign=middle;whiteSpace=wrap;rounded=0;labelBorderColor=none;fontSize=20;" parent="WIyWlLk6GJQsqaUBKTNV-1" vertex="1">
          <mxGeometry x="690" y="-715" width="200" height="30" as="geometry" />
        </mxCell>
        <mxCell id="E5yHEnVOpl1G4EYSQThK-65" value="&lt;span style=&quot;font-family: Roboto, sans-serif; font-size: 12px; background-color: rgb(255, 255, 255);&quot;&gt;Bitte rufen Sie uns bei Fragen/ Profil-Änderungen an oder teilen Sie uns Ihr Anliegen über das Kontakt-Formular mit.&lt;/span&gt;" style="text;html=1;strokeColor=none;fillColor=none;align=left;verticalAlign=middle;whiteSpace=wrap;rounded=0;labelBorderColor=none;fontSize=13;" parent="WIyWlLk6GJQsqaUBKTNV-1" vertex="1">
          <mxGeometry x="690" y="-685" width="310" height="30" as="geometry" />
        </mxCell>
        <mxCell id="E5yHEnVOpl1G4EYSQThK-66" value="&lt;p style=&quot;font-size: 14px;&quot;&gt;Bitte verbessern sie Ihr Grafic User Interface. Auf meinem kleinen Handy lässt sich nicht alles anzeigen. Besten Dank&lt;/p&gt;&lt;p style=&quot;font-size: 14px;&quot;&gt;&lt;br&gt;&lt;/p&gt;" style="rounded=0;whiteSpace=wrap;html=1;fontFamily=Verdana;fontSize=20;align=left;" parent="WIyWlLk6GJQsqaUBKTNV-1" vertex="1">
          <mxGeometry x="690" y="-540" width="265" height="100" as="geometry" />
        </mxCell>
        <mxCell id="E5yHEnVOpl1G4EYSQThK-67" value="&lt;b style=&quot;font-size: 15px;&quot;&gt;Senden sie uns eine Nachricht&lt;/b&gt;" style="text;html=1;strokeColor=none;fillColor=none;align=left;verticalAlign=middle;whiteSpace=wrap;rounded=0;labelBorderColor=none;fontSize=15;" parent="WIyWlLk6GJQsqaUBKTNV-1" vertex="1">
          <mxGeometry x="690" y="-570" width="220" height="30" as="geometry" />
        </mxCell>
        <mxCell id="UELcHL7BnHZ7wptFAvBW-0" value="Hauptmenu" style="strokeWidth=1;shadow=0;dashed=0;align=center;html=1;shape=mxgraph.mockup.containers.window;align=left;verticalAlign=top;spacingLeft=8;strokeColor2=#008cff;strokeColor3=#c4c4c4;fontColor=#666666;mainText=;fontSize=17;labelBackgroundColor=none;" parent="WIyWlLk6GJQsqaUBKTNV-1" vertex="1">
          <mxGeometry x="1270" y="-1150" width="550" height="380" as="geometry" />
        </mxCell>
        <mxCell id="UELcHL7BnHZ7wptFAvBW-1" value="ausloggen" style="strokeWidth=1;shadow=0;dashed=0;align=center;html=1;shape=mxgraph.mockup.buttons.button;strokeColor=#666666;fontColor=#ffffff;mainText=;buttonStyle=round;fontSize=17;fontStyle=1;fillColor=#008cff;whiteSpace=wrap;" parent="WIyWlLk6GJQsqaUBKTNV-1" vertex="1">
          <mxGeometry x="1690" y="-830" width="110" height="40" as="geometry" />
        </mxCell>
        <mxCell id="UELcHL7BnHZ7wptFAvBW-2" value="" style="verticalLabelPosition=bottom;shadow=0;dashed=0;align=center;html=1;verticalAlign=top;strokeWidth=1;shape=mxgraph.mockup.containers.userMale;strokeColor=#666666;strokeColor2=#008cff;" parent="WIyWlLk6GJQsqaUBKTNV-1" vertex="1">
          <mxGeometry x="1761" y="-1115" width="40" height="40" as="geometry" />
        </mxCell>
        <mxCell id="UELcHL7BnHZ7wptFAvBW-3" value="" style="verticalLabelPosition=bottom;shadow=0;dashed=0;align=center;html=1;verticalAlign=top;strokeWidth=1;shape=mxgraph.mockup.misc.help_icon;" parent="WIyWlLk6GJQsqaUBKTNV-1" vertex="1">
          <mxGeometry x="1680" y="-1115" width="42" height="40" as="geometry" />
        </mxCell>
        <mxCell id="UELcHL7BnHZ7wptFAvBW-4" value="&lt;span style=&quot;color: rgb(102, 102, 102); font-size: 9px; text-align: left;&quot;&gt;eingeloggt als:&lt;br&gt;elAdmin&lt;br&gt;(Admin)&lt;br&gt;&lt;/span&gt;" style="text;html=1;strokeColor=none;fillColor=none;align=center;verticalAlign=middle;whiteSpace=wrap;rounded=0;labelBorderColor=none;fontSize=9;fontFamily=Verdana;" parent="WIyWlLk6GJQsqaUBKTNV-1" vertex="1">
          <mxGeometry x="1746" y="-1075" width="70" height="30" as="geometry" />
        </mxCell>
        <mxCell id="UELcHL7BnHZ7wptFAvBW-5" value="Trainingseinheit nutzen" style="strokeWidth=1;shadow=0;dashed=0;align=center;html=1;shape=mxgraph.mockup.buttons.button;strokeColor=#666666;fontColor=#ffffff;mainText=;buttonStyle=round;fontSize=17;fontStyle=1;fillColor=#008cff;whiteSpace=wrap;" parent="WIyWlLk6GJQsqaUBKTNV-1" vertex="1">
          <mxGeometry x="1280" y="-1110" width="240" height="40" as="geometry" />
        </mxCell>
        <mxCell id="UELcHL7BnHZ7wptFAvBW-6" value="Trainingseinheit erstellen" style="strokeWidth=1;shadow=0;dashed=0;align=center;html=1;shape=mxgraph.mockup.buttons.button;strokeColor=#666666;fontColor=#ffffff;mainText=;buttonStyle=round;fontSize=17;fontStyle=1;fillColor=#008cff;whiteSpace=wrap;" parent="WIyWlLk6GJQsqaUBKTNV-1" vertex="1">
          <mxGeometry x="1280" y="-1060" width="240" height="40" as="geometry" />
        </mxCell>
        <mxCell id="UELcHL7BnHZ7wptFAvBW-7" value="Trainingseinheiten bewerten" style="strokeWidth=1;shadow=0;dashed=0;align=center;html=1;shape=mxgraph.mockup.buttons.button;strokeColor=#666666;fontColor=#ffffff;mainText=;buttonStyle=round;fontSize=17;fontStyle=1;fillColor=#008cff;whiteSpace=wrap;" parent="WIyWlLk6GJQsqaUBKTNV-1" vertex="1">
          <mxGeometry x="1870" y="-1150" width="240" height="40" as="geometry" />
        </mxCell>
        <mxCell id="UELcHL7BnHZ7wptFAvBW-8" value="Trainingseinheit löschen" style="strokeWidth=1;shadow=0;dashed=0;align=center;html=1;shape=mxgraph.mockup.buttons.button;strokeColor=#666666;fontColor=#ffffff;mainText=;buttonStyle=round;fontSize=17;fontStyle=1;fillColor=#008cff;whiteSpace=wrap;" parent="WIyWlLk6GJQsqaUBKTNV-1" vertex="1">
          <mxGeometry x="1280" y="-1010" width="240" height="40" as="geometry" />
        </mxCell>
        <mxCell id="UELcHL7BnHZ7wptFAvBW-9" value="Help" style="text;html=1;strokeColor=none;fillColor=none;align=center;verticalAlign=middle;whiteSpace=wrap;rounded=0;labelBorderColor=none;fontSize=9;fontFamily=Verdana;" parent="WIyWlLk6GJQsqaUBKTNV-1" vertex="1">
          <mxGeometry x="1666" y="-1080" width="70" height="30" as="geometry" />
        </mxCell>
        <mxCell id="UELcHL7BnHZ7wptFAvBW-11" value="Trainingseinheiten zusammenführen" style="strokeWidth=1;shadow=0;dashed=0;align=center;html=1;shape=mxgraph.mockup.buttons.button;strokeColor=#666666;fontColor=#ffffff;mainText=;buttonStyle=round;fontSize=17;fontStyle=1;fillColor=#008cff;whiteSpace=wrap;" parent="WIyWlLk6GJQsqaUBKTNV-1" vertex="1">
          <mxGeometry x="1280" y="-960" width="240" height="40" as="geometry" />
        </mxCell>
        <mxCell id="bzcMuqbRZehH2Y1xTKyv-30" value="Trainingseinheiten nutzen" style="strokeWidth=1;shadow=0;dashed=0;align=center;html=1;shape=mxgraph.mockup.containers.window;align=left;verticalAlign=top;spacingLeft=8;strokeColor2=#008cff;strokeColor3=#c4c4c4;fontColor=#666666;mainText=;fontSize=17;labelBackgroundColor=none;" vertex="1" parent="WIyWlLk6GJQsqaUBKTNV-1">
          <mxGeometry x="680" y="-352.5" width="550" height="380" as="geometry" />
        </mxCell>
        <mxCell id="bzcMuqbRZehH2Y1xTKyv-31" value="Zurück" style="strokeWidth=1;shadow=0;dashed=0;align=center;html=1;shape=mxgraph.mockup.buttons.button;strokeColor=#666666;fontColor=#ffffff;mainText=;buttonStyle=round;fontSize=17;fontStyle=1;fillColor=#008cff;whiteSpace=wrap;" vertex="1" parent="WIyWlLk6GJQsqaUBKTNV-1">
          <mxGeometry x="1100" y="-32.5" width="110" height="40" as="geometry" />
        </mxCell>
        <mxCell id="bzcMuqbRZehH2Y1xTKyv-32" value="" style="verticalLabelPosition=bottom;shadow=0;dashed=0;align=center;html=1;verticalAlign=top;strokeWidth=1;shape=mxgraph.mockup.containers.userMale;strokeColor=#666666;strokeColor2=#008cff;" vertex="1" parent="WIyWlLk6GJQsqaUBKTNV-1">
          <mxGeometry x="1171" y="-317.5" width="40" height="40" as="geometry" />
        </mxCell>
        <mxCell id="bzcMuqbRZehH2Y1xTKyv-33" value="&lt;span style=&quot;color: rgb(102, 102, 102); font-size: 9px; text-align: left;&quot;&gt;eingeloggt als:&lt;br&gt;elSombrero6345&lt;/span&gt;" style="text;html=1;strokeColor=none;fillColor=none;align=center;verticalAlign=middle;whiteSpace=wrap;rounded=0;labelBorderColor=none;fontSize=9;fontFamily=Verdana;" vertex="1" parent="WIyWlLk6GJQsqaUBKTNV-1">
          <mxGeometry x="1156" y="-277.5" width="70" height="30" as="geometry" />
        </mxCell>
        <mxCell id="bzcMuqbRZehH2Y1xTKyv-45" value="" style="verticalLabelPosition=bottom;shadow=0;dashed=0;align=center;html=1;verticalAlign=top;strokeWidth=1;shape=mxgraph.mockup.containers.videoPlayer;strokeColor=#666666;strokeColor2=#008cff;strokeColor3=#c4c4c4;textColor=#666666;fillColor2=#008cff;barHeight=30;barPos=20;" vertex="1" parent="WIyWlLk6GJQsqaUBKTNV-1">
          <mxGeometry x="690" y="-260" width="240" height="130" as="geometry" />
        </mxCell>
        <mxCell id="bzcMuqbRZehH2Y1xTKyv-46" value="Search" style="strokeWidth=1;shadow=0;dashed=0;align=center;html=1;shape=mxgraph.mockup.forms.searchBox;strokeColor=#999999;mainText=;strokeColor2=#008cff;fontColor=#666666;fontSize=17;align=left;spacingLeft=3;" vertex="1" parent="WIyWlLk6GJQsqaUBKTNV-1">
          <mxGeometry x="690" y="-307.5" width="440" height="30" as="geometry" />
        </mxCell>
        <mxCell id="bzcMuqbRZehH2Y1xTKyv-47" value="Joggen im Wald" style="text;html=1;strokeColor=none;fillColor=none;align=left;verticalAlign=middle;whiteSpace=wrap;rounded=0;labelBorderColor=none;fontSize=20;" vertex="1" parent="WIyWlLk6GJQsqaUBKTNV-1">
          <mxGeometry x="942" y="-110" width="200" height="30" as="geometry" />
        </mxCell>
        <mxCell id="bzcMuqbRZehH2Y1xTKyv-50" value="4 Minuten Workout" style="text;html=1;strokeColor=none;fillColor=none;align=left;verticalAlign=middle;whiteSpace=wrap;rounded=0;labelBorderColor=none;fontSize=20;" vertex="1" parent="WIyWlLk6GJQsqaUBKTNV-1">
          <mxGeometry x="942" y="-260" width="200" height="30" as="geometry" />
        </mxCell>
        <mxCell id="bzcMuqbRZehH2Y1xTKyv-53" value="" style="verticalLabelPosition=bottom;shadow=0;dashed=0;align=center;html=1;verticalAlign=top;strokeWidth=1;shape=mxgraph.mockup.containers.videoPlayer;strokeColor=#666666;strokeColor2=#008cff;strokeColor3=#c4c4c4;textColor=#666666;fillColor2=#008cff;barHeight=30;barPos=20;" vertex="1" parent="WIyWlLk6GJQsqaUBKTNV-1">
          <mxGeometry x="690" y="-110" width="240" height="130" as="geometry" />
        </mxCell>
        <mxCell id="bzcMuqbRZehH2Y1xTKyv-54" value="&lt;div&gt;Dieses Workout dient dazu schnell&lt;/div&gt;&lt;div&gt;abzunehmen und viel sport zu machen&lt;br&gt;&lt;/div&gt;" style="text;html=1;strokeColor=none;fillColor=none;align=left;verticalAlign=middle;whiteSpace=wrap;rounded=0;labelBorderColor=none;fontSize=13;" vertex="1" parent="WIyWlLk6GJQsqaUBKTNV-1">
          <mxGeometry x="942" y="-232.5" width="310" height="30" as="geometry" />
        </mxCell>
        <mxCell id="bzcMuqbRZehH2Y1xTKyv-55" value="Bewerten" style="strokeWidth=1;shadow=0;dashed=0;align=center;html=1;shape=mxgraph.mockup.buttons.button;strokeColor=#b85450;mainText=;buttonStyle=round;fontSize=17;fontStyle=1;fillColor=#f8cecc;whiteSpace=wrap;" vertex="1" parent="WIyWlLk6GJQsqaUBKTNV-1">
          <mxGeometry x="942" y="-20" width="105" height="40" as="geometry" />
        </mxCell>
        <mxCell id="bzcMuqbRZehH2Y1xTKyv-56" value="Bewerten" style="strokeWidth=1;shadow=0;dashed=0;align=center;html=1;shape=mxgraph.mockup.buttons.button;strokeColor=#b85450;mainText=;buttonStyle=round;fontSize=17;fontStyle=1;fillColor=#f8cecc;whiteSpace=wrap;" vertex="1" parent="WIyWlLk6GJQsqaUBKTNV-1">
          <mxGeometry x="942" y="-170" width="105" height="40" as="geometry" />
        </mxCell>
        <mxCell id="bzcMuqbRZehH2Y1xTKyv-57" value="&lt;div&gt;Mit dieser Trainingseinheit verbringt man &lt;br&gt;&lt;/div&gt;&lt;div&gt;noch Zeit im Wald&lt;br&gt;&lt;/div&gt;" style="text;html=1;strokeColor=none;fillColor=none;align=left;verticalAlign=middle;whiteSpace=wrap;rounded=0;labelBorderColor=none;fontSize=13;" vertex="1" parent="WIyWlLk6GJQsqaUBKTNV-1">
          <mxGeometry x="942" y="-80" width="310" height="30" as="geometry" />
        </mxCell>
        <mxCell id="bzcMuqbRZehH2Y1xTKyv-58" value="" style="verticalLabelPosition=bottom;shadow=0;dashed=0;align=center;html=1;verticalAlign=top;strokeWidth=1;shape=mxgraph.mockup.forms.splitter;strokeColor=#999999;direction=north;" vertex="1" parent="WIyWlLk6GJQsqaUBKTNV-1">
          <mxGeometry x="1210" y="-235" width="10" height="185" as="geometry" />
        </mxCell>
        <mxCell id="bzcMuqbRZehH2Y1xTKyv-59" value="" style="verticalLabelPosition=bottom;shadow=0;dashed=0;align=center;html=1;verticalAlign=top;strokeWidth=1;shape=mxgraph.mockup.navigation.scrollBar;strokeColor=#999999;barPos=20;fillColor2=#99ddff;strokeColor2=none;direction=north;" vertex="1" parent="WIyWlLk6GJQsqaUBKTNV-1">
          <mxGeometry x="1201" y="-242.5" width="20" height="200" as="geometry" />
        </mxCell>
        <mxCell id="bzcMuqbRZehH2Y1xTKyv-60" value="Trainingseinheit Bewerten" style="strokeWidth=1;shadow=0;dashed=0;align=center;html=1;shape=mxgraph.mockup.containers.window;align=left;verticalAlign=top;spacingLeft=8;strokeColor2=#008cff;strokeColor3=#c4c4c4;fontColor=#666666;mainText=;fontSize=17;labelBackgroundColor=none;" vertex="1" parent="WIyWlLk6GJQsqaUBKTNV-1">
          <mxGeometry x="1259" y="-352.5" width="550" height="380" as="geometry" />
        </mxCell>
        <mxCell id="bzcMuqbRZehH2Y1xTKyv-61" value="Bewertung absenden" style="strokeWidth=1;shadow=0;dashed=0;align=center;html=1;shape=mxgraph.mockup.buttons.button;strokeColor=#666666;fontColor=#ffffff;mainText=;buttonStyle=round;fontSize=17;fontStyle=1;fillColor=#008cff;whiteSpace=wrap;" vertex="1" parent="WIyWlLk6GJQsqaUBKTNV-1">
          <mxGeometry x="1679" y="-32.5" width="110" height="40" as="geometry" />
        </mxCell>
        <mxCell id="bzcMuqbRZehH2Y1xTKyv-62" value="" style="verticalLabelPosition=bottom;shadow=0;dashed=0;align=center;html=1;verticalAlign=top;strokeWidth=1;shape=mxgraph.mockup.containers.userMale;strokeColor=#666666;strokeColor2=#008cff;" vertex="1" parent="WIyWlLk6GJQsqaUBKTNV-1">
          <mxGeometry x="1750" y="-317.5" width="40" height="40" as="geometry" />
        </mxCell>
        <mxCell id="bzcMuqbRZehH2Y1xTKyv-63" value="&lt;span style=&quot;color: rgb(102, 102, 102); font-size: 9px; text-align: left;&quot;&gt;eingeloggt als:&lt;br&gt;elSombrero6345&lt;/span&gt;" style="text;html=1;strokeColor=none;fillColor=none;align=center;verticalAlign=middle;whiteSpace=wrap;rounded=0;labelBorderColor=none;fontSize=9;fontFamily=Verdana;" vertex="1" parent="WIyWlLk6GJQsqaUBKTNV-1">
          <mxGeometry x="1735" y="-277.5" width="70" height="30" as="geometry" />
        </mxCell>
        <mxCell id="bzcMuqbRZehH2Y1xTKyv-75" value="Training war super. Der Wald war extrem schön und ich konnte mich super auspowern" style="rounded=0;whiteSpace=wrap;html=1;fontFamily=Verdana;fontSize=16;align=left;" vertex="1" parent="WIyWlLk6GJQsqaUBKTNV-1">
          <mxGeometry x="1280" y="-180" width="290" height="70" as="geometry" />
        </mxCell>
        <mxCell id="bzcMuqbRZehH2Y1xTKyv-76" value="Schreiben sie noch etwas zu der Bewertung" style="text;html=1;strokeColor=none;fillColor=none;align=left;verticalAlign=middle;whiteSpace=wrap;rounded=0;labelBorderColor=none;fontSize=15;" vertex="1" parent="WIyWlLk6GJQsqaUBKTNV-1">
          <mxGeometry x="1280" y="-207.5" width="300" height="30" as="geometry" />
        </mxCell>
      </root>
    </mxGraphModel>
  </diagram>
</mxfile>
